<?xml version="1.0" standalone="no"?>
<!DOCTYPE svg PUBLIC "-//W3C//DTD SVG 20010904//EN"
 "http://www.w3.org/TR/2001/REC-SVG-20010904/DTD/svg10.dtd">
<svg version="1.0" xmlns="http://www.w3.org/2000/svg"
 width="640.000000pt" height="640.000000pt" viewBox="0 0 640.000000 640.000000"
 preserveAspectRatio="xMidYMid meet">
<metadata>
Created by potrace 1.14, written by Peter Selinger 2001-2017
</metadata>
<g transform="translate(0.000000,640.000000) scale(0.100000,-0.100000)"
fill="#000000" stroke="none">
<path d="M0 3200 l0 -3200 3200 0 3200 0 0 3200 0 3200 -3200 0 -3200 0 0
-3200z m3482 2800 c76 -22 128 -88 146 -190 6 -30 23 -198 38 -374 16 -175 33
-325 39 -332 9 -12 174 -62 750 -229 864 -250 1190 -347 1235 -370 90 -45 127
-115 117 -219 -4 -34 -25 -126 -47 -206 -23 -80 -89 -311 -146 -515 -58 -203
-143 -503 -189 -665 -46 -162 -118 -416 -160 -565 -42 -148 -119 -421 -171
-605 -52 -184 -118 -416 -146 -515 -130 -464 -200 -700 -218 -734 -23 -47 -81
-99 -118 -106 -15 -4 -35 -8 -45 -10 -41 -8 -158 22 -782 201 -357 102 -679
194 -715 204 -418 115 -1076 308 -1115 327 -65 32 -84 49 -106 98 -25 54 -24
125 5 234 13 50 20 94 16 96 -5 3 -156 -9 -337 -26 -342 -31 -400 -31 -464 1
-84 43 -103 101 -129 388 -11 125 -22 245 -25 267 -2 22 -11 121 -20 220 -8
99 -27 302 -40 450 -42 461 -53 582 -110 1210 -30 336 -73 815 -95 1065 -25
273 -39 473 -35 500 16 107 73 160 196 185 41 9 364 40 719 70 1305 112 1695
145 1715 149 46 8 203 5 237 -4z"/>
<path d="M3259 5956 c-2 -2 -51 -6 -109 -10 -58 -4 -168 -13 -245 -21 -77 -8
-203 -19 -280 -25 -77 -6 -160 -13 -185 -15 -103 -11 -263 -25 -390 -35 -74
-6 -209 -17 -300 -26 -91 -8 -341 -30 -557 -49 -428 -37 -459 -43 -502 -104
-32 -45 -36 -119 -17 -302 9 -85 23 -239 31 -344 9 -104 18 -203 21 -220 2
-16 16 -158 29 -315 54 -634 65 -756 70 -790 3 -19 14 -138 25 -265 27 -323
57 -663 75 -845 8 -85 22 -240 30 -345 8 -104 17 -206 20 -225 3 -19 12 -108
20 -198 15 -164 29 -219 66 -258 31 -33 98 -47 187 -41 110 8 535 46 613 55
88 11 91 9 73 -41 -60 -170 -69 -304 -24 -353 38 -40 86 -59 299 -119 108 -31
241 -69 296 -85 225 -65 393 -113 440 -126 28 -7 390 -110 805 -229 414 -118
772 -215 793 -215 21 0 54 7 72 16 62 29 85 80 155 334 17 63 40 142 50 175
10 33 44 152 75 265 31 113 65 232 75 265 10 33 33 112 50 175 17 63 65 232
105 375 72 256 153 540 301 1065 42 146 87 306 100 355 14 50 34 117 44 150
10 33 33 112 50 175 17 63 56 201 86 306 93 326 77 372 -152 439 -43 12 -149
43 -234 68 -85 25 -243 71 -350 102 -107 31 -231 67 -275 80 -106 30 -699 203
-865 251 -47 14 -105 31 -130 38 l-45 12 -7 60 c-8 74 -24 245 -52 556 -24
254 -51 288 -232 288 -55 0 -103 -2 -105 -4z m-901 -1341 c199 -39 324 -99
423 -202 108 -112 154 -236 154 -408 -1 -140 -35 -255 -120 -400 -29 -50 -126
-185 -155 -216 -8 -8 -49 -55 -90 -102 -87 -101 -484 -496 -680 -676 -74 -69
-171 -160 -215 -203 l-80 -78 460 0 c294 0 474 4 500 11 54 14 124 63 157 108
31 43 72 148 83 209 l7 42 116 0 117 0 -7 -222 c-4 -123 -10 -301 -14 -395
l-6 -173 -889 0 -889 0 0 198 0 197 261 265 c368 375 506 522 579 619 55 73
66 87 86 116 49 70 128 232 155 315 39 125 52 239 47 410 -4 132 -7 151 -33
208 -60 134 -187 195 -335 161 -155 -36 -236 -189 -255 -480 -3 -52 -8 -109
-11 -126 l-5 -33 -62 0 c-34 0 -96 9 -137 21 -172 47 -260 143 -276 301 -26
253 172 457 511 526 144 30 135 29 315 30 138 1 186 -3 288 -23z m2032 -1147
c0 -700 4 -1166 10 -1203 12 -71 33 -103 86 -130 34 -17 63 -20 222 -23 l182
-3 0 -100 0 -99 -780 0 -780 0 0 100 0 100 178 0 c189 0 232 9 275 58 46 51
47 68 47 1090 0 529 -4 962 -8 962 -4 0 -29 -26 -56 -57 -66 -79 -150 -167
-211 -218 -89 -76 -165 -103 -251 -90 -66 9 -136 79 -158 155 -32 113 -30 123
24 135 97 20 294 114 435 208 56 37 211 150 308 224 l42 32 218 0 217 1 0
-1142z"/>
</g>
</svg>
